<?xml version="1.0" encoding="UTF-8" standalone="no"?>
<svg
   xmlns:dc="http://purl.org/dc/elements/1.1/"
   xmlns:cc="http://creativecommons.org/ns#"
   xmlns:rdf="http://www.w3.org/1999/02/22-rdf-syntax-ns#"
   xmlns:svg="http://www.w3.org/2000/svg"
   xmlns="http://www.w3.org/2000/svg"
   xmlns:sodipodi="http://sodipodi.sourceforge.net/DTD/sodipodi-0.dtd"
   xmlns:inkscape="http://www.inkscape.org/namespaces/inkscape"
   id="Layer_1"
   enable-background="new 0 0 512 512"
   height="500"
   viewBox="0 0 420 500"
   width="420"
   version="1.1"
   sodipodi:docname="awayPlayer.svg"
   inkscape:version="1.0.1 (3bc2e813f5, 2020-09-07)">
  <metadata
     id="metadata56">
    <rdf:RDF>
      <cc:Work
         rdf:about="">
        <dc:format>image/svg+xml</dc:format>
        <dc:type
           rdf:resource="http://purl.org/dc/dcmitype/StillImage" />
        <dc:title></dc:title>
      </cc:Work>
    </rdf:RDF>
  </metadata>
  <defs
     id="defs54" />
  <sodipodi:namedview
     pagecolor="#ffffff"
     bordercolor="#666666"
     borderopacity="1"
     objecttolerance="10"
     gridtolerance="10"
     guidetolerance="10"
     inkscape:pageopacity="0"
     inkscape:pageshadow="2"
     inkscape:window-width="1920"
     inkscape:window-height="1016"
     id="namedview52"
     showgrid="false"
     fit-margin-top="0"
     fit-margin-left="0"
     fit-margin-right="0"
     fit-margin-bottom="0"
     inkscape:zoom="1.1780509"
     inkscape:cx="167.61039"
     inkscape:cy="271.18191"
     inkscape:window-x="1680"
     inkscape:window-y="27"
     inkscape:window-maximized="1"
     inkscape:current-layer="layer1" />
  <g
     inkscape:groupmode="layer"
     id="layer1"
     inkscape:label="profile">
    <path
       d="M 266.03,246.488 H 153.97 v 118.84 L 210,404 266.03,365.328 Z"
       fill="#f7a969"
       id="path25" />
    <path
       d="m 339.54,318.29 h -73.51 v 0.002 C 259.667,343 231.41,361.667 210,361.667 188.59,361.667 155,337 153.97,318.292 V 318.29 H 80.47 C 38.65,318.29 4.59,351.55 3.31,393.06 49.88,456.68 125.12,498 210,498 c 84.88,0 160.12,-41.32 206.69,-104.94 -1.27,-41.52 -35.32,-74.77 -77.15,-74.77 z"
       fill="#ffe69f"
       id="path29"
       style="fill:#ed333b" />
    <path
       d="M 303.62,137.149 C 299.665,77.106 251.097,54.916 210,54.916 c -41.097,0 -89.665,22.19 -93.62,82.233 -10.628,2.055 -18.177,15.995 -16.988,27.265 l 1.822,25.648 c 1.247,11.835 11.65,20.476 23.115,19.19 l 1.977,-0.214 c 23.485,63.063 60.316,69.638 83.694,73.33 23.378,-3.692 60.209,-10.267 83.694,-73.33 l 1.977,0.214 c 11.465,1.286 21.868,-7.354 23.115,-19.19 l 1.822,-25.648 c 1.189,-11.27 -6.36,-25.21 -16.988,-27.265 z"
       fill="#ffbf85"
       id="path33" />
    <path
       d="m 312.323,111.891 c 0,0 -4.478,-47.857 -42.189,-85.568 L 254.846,38.893 210,2 165.155,38.894 149.867,26.324 c -37.711,37.711 -42.189,85.568 -42.189,85.568 0.006,-0.008 -1.789,19.847 0.145,30.119 l 16.875,21.907 8.343,-36.928 c 2.916,-12.906 9.944,-24.623 20.327,-32.824 12.124,-9.576 30.724,-16.796 56.632,-7.368 25.908,-9.428 44.508,-2.208 56.632,7.368 10.383,8.201 17.411,19.918 20.327,32.824 l 8.343,36.928 16.875,-21.907 c 1.935,-10.273 0.14,-30.128 0.146,-30.12 z"
       fill="#a06564"
       id="path37" />
    <path
       d="m 266.03,318.29 c -25.205,42.605 -86.855,42.605 -112.06,0 H 124 c 0,0 8.333,65.377 86,65.377 77.667,0 86,-65.377 86,-65.377 z"
       fill="#29cc9a"
       id="path41"
       style="fill:#f6f5f4" />
  </g>
  <g
     inkscape:groupmode="layer"
     id="layer2"
     inkscape:label="overlay"
     style="display:inline">
    <path
       id="path1115"
       d="m 210,2 v 84.800781 c 0,0 0.002,0 0.002,0 V 246.49023 H 210 v 103.75 33.42969 V 404 498 c 84.88,0 160.11945,-41.31945 206.68945,-104.93945 -1.27,-41.52 -35.32039,-74.77149 -77.15039,-74.77149 H 296 266.0293 v -62.27734 c 6.4e-4,-6.7e-4 0.001,-0.001 0.002,-0.002 10.062,-10.491 19.63706,-25.44466 27.66406,-46.97266 l 1.97657,0.21484 c 11.465,1.286 21.86823,-7.35445 23.11523,-19.18945 l 1.82227,-25.64844 c 0.83107,-7.884 -2.6174,-17.06958 -8.4004,-22.58398 0.65469,-3.57892 0.8711,-8.26593 0.8711,-12.88086 0,-8.68 -0.75977,-17.0586 -0.75977,-17.0586 0,1e-5 -4.47945,-47.860307 -42.18945,-85.570308 l -15.28125,12.570313 z"
       style="fill:#000000;fill-opacity:0.1" />
    <path
       d="m 268.363,408.145 h 50.182 v 30.654 h -50.182 z"
       fill="#ff9b24"
       id="path45"
       style="fill:#000000;fill-opacity:0.2" />
  </g>
</svg>
