<?xml version="1.0" encoding="UTF-8" standalone="no"?>
<svg
   xmlns:dc="http://purl.org/dc/elements/1.1/"
   xmlns:cc="http://creativecommons.org/ns#"
   xmlns:rdf="http://www.w3.org/1999/02/22-rdf-syntax-ns#"
   xmlns:svg="http://www.w3.org/2000/svg"
   xmlns="http://www.w3.org/2000/svg"
   xmlns:sodipodi="http://sodipodi.sourceforge.net/DTD/sodipodi-0.dtd"
   xmlns:inkscape="http://www.inkscape.org/namespaces/inkscape"
   version="1.1"
   id="Capa_1"
   x="0px"
   y="0px"
   width="16"
   height="16"
   viewBox="0 0 16 16"
   xml:space="preserve"
   sodipodi:docname="ball.svg"
   inkscape:version="1.0.1 (3bc2e813f5, 2020-09-07)"
   inkscape:export-filename="/home/einaru/Documents/ntnu/tdt4250/assignments/project/no.ntnu.soccer.design/assets/ball.png"
   inkscape:export-xdpi="32"
   inkscape:export-ydpi="32"><metadata
   id="metadata43"><rdf:RDF><cc:Work
       rdf:about=""><dc:format>image/svg+xml</dc:format><dc:type
         rdf:resource="http://purl.org/dc/dcmitype/StillImage" /><dc:title></dc:title></cc:Work></rdf:RDF></metadata><defs
   id="defs41" /><sodipodi:namedview
   pagecolor="#ffffff"
   bordercolor="#666666"
   borderopacity="1"
   objecttolerance="10"
   gridtolerance="10"
   guidetolerance="10"
   inkscape:pageopacity="0"
   inkscape:pageshadow="2"
   inkscape:window-width="1920"
   inkscape:window-height="1016"
   id="namedview39"
   showgrid="false"
   inkscape:zoom="10.136113"
   inkscape:cx="5.6648533"
   inkscape:cy="25.834046"
   inkscape:window-x="1680"
   inkscape:window-y="27"
   inkscape:window-maximized="1"
   inkscape:current-layer="Capa_1"
   fit-margin-top="0"
   fit-margin-left="0"
   fit-margin-right="0"
   fit-margin-bottom="0"
   inkscape:document-rotation="0" />
<circle
   style="opacity:0.999;fill:#ffffff;fill-opacity:1;stroke:none;stroke-width:3;stroke-dasharray:9, 9"
   id="path830"
   cx="7.9820976"
   cy="7.936573"
   r="7.7931581" /><path
   d="M 13.655462,2.3426111 C 12.921008,1.6082344 12.065546,1.0318244 11.112605,0.62850539 10.12605,0.21174246 9.0789916,0 7.9983193,0 6.9193279,0.0016805 5.8722686,0.21174246 4.8857143,0.63018589 3.932773,1.0335049 3.077311,1.6099149 2.3428571,2.3442916 1.6084034,3.0786683 1.0319328,3.9340406 0.62857143,4.8868816 0.2117647,5.8733326 0,6.9202816 0,8.0008403 0,9.0797352 0.2117647,10.128348 0.62857143,11.114816 1.0319328,12.06764 1.6084034,12.923029 2.3428571,13.657389 3.077311,14.391783 3.932773,14.968176 4.8857143,15.371495 5.8722686,15.788274 6.9193279,16 7.9999999,16 c 1.0789917,0 2.1277481,-0.211742 3.1142861,-0.628505 0.952941,-0.403319 1.80842,-0.979712 2.542874,-1.714106 0.734437,-0.73436 1.310924,-1.589749 1.714285,-2.542573 C 15.788252,10.128348 16,9.0814159 16,8.0008403 16,6.9219619 15.788235,5.8733326 15.371445,4.8868816 14.966387,3.93236 14.389916,3.0786683 13.655462,2.3426111 Z M 3.5714286,1.8065329 c 0.072269,-0.055456 0.142857,-0.1142737 0.2168067,-0.166369 0.3882353,-0.2722404 0.8184873,-0.4923853 1.2554623,-0.67555934 0.931092,-0.38987503 1.942857,-0.5948955 2.9546217,-0.5948955 0.6739496,0 1.3647056,0.0907468 2.0151097,0.26887933 C 9.7562856,0.74277909 9.4419999,0.94107759 8.9142856,1.3914505 8.4756132,1.3443966 8.0319329,1.3427161 7.5865546,1.3847284 7.0050253,1.4401848 6.4201679,1.569583 5.8487396,1.7712425 5.3327729,1.952736 4.9243696,2.159437 4.6487396,2.3174036 4.2268906,2.1661589 3.682353,1.9880264 3.4134453,1.9006406 3.4554623,1.9140843 3.542857,1.8283793 3.5714286,1.8065329 Z M 10.858824,3.806323 9.4907562,7.5403846 6.2084033,8.1705703 3.4957983,5.3691836 C 3.6789916,4.098729 4.5495796,2.972797 4.5495796,2.972797 c 0.00504,-0.00336 0.5731093,-0.413402 1.484034,-0.7310157 0.531109,-0.186535 1.0722687,-0.3058502 1.6117643,-0.3562651 0.4403364,-0.040332 0.878992,-0.03361 1.312605,0.018486 z M 0.66050419,7.7336416 c -0.0840336,0.5428 -0.102521,1.105766 -0.0588235,1.672093 C 0.53613446,9.2746729 0.4840336,9.1637769 0.44537816,9.0746939 0.39495796,8.7234702 0.3697479,8.3638272 0.3697479,7.9974959 c 0,-1.125932 0.24369749,-2.1964076 0.6823529,-3.1593319 -0.04874,0.5041489 -0.02521,1.0267829 0.010084,1.4233799 C 0.87394952,6.7337466 0.73949576,7.2261319 0.66050419,7.7336416 Z M 1.3243697,10.642597 C 1.2470588,10.358593 1.1563025,9.9451909 1.1109244,9.4494442 1.0605042,8.8898226 1.0756303,8.3335952 1.1596639,7.8008613 1.2235294,7.3925009 1.3260504,6.9959209 1.4672269,6.6144313 2.020168,6.1472533 2.7529413,5.8733326 3.1579833,5.7472953 L 5.8201679,8.4965866 5.5411766,11.509715 2.9394958,12.378532 C 2.2773109,11.891188 1.7361344,11.245861 1.3243697,10.642597 Z m 7.9058822,4.36255 c -0.579832,0.379792 -2.045378,0.470538 -2.640336,0.492368 C 5.9344536,15.374856 5.2974789,15.164794 4.6974623,14.875732 4.1730926,14.623657 3.6756136,14.311085 3.221832,13.944771 3.230232,13.929651 3.151244,13.128016 3.154605,12.835643 l 2.6285716,-0.877235 3.0336133,1.312467 0.4184707,1.72923 c -0.00333,0.0034 -0.00501,0.005 -0.00501,0.005 z m 5.0403361,-2.660225 c -0.452101,0.652032 -0.993277,1.258691 -1.643697,1.719147 -0.610084,0.430207 -1.426874,0.57809 -2.152941,0.697406 -0.05546,0.0084 -0.7495801,0.122659 -0.7546224,0.09915 l -0.4184707,-1.730911 2.1361181,-2.223295 2.828571,-0.260477 c 0.04371,0.450389 0.100841,1.107446 0.134454,1.509102 -0.0437,0.06384 -0.08571,0.127701 -0.129412,0.189878 z m 0.0437,-2.261947 c -0.01009,0.01681 -0.02017,0.03529 -0.03025,0.05547 L 11.467226,10.397211 9.9512592,7.7454049 11.322688,4.0029406 13.258822,4.125617 c 0.411765,0.3445016 0.776471,0.7276546 1.085715,1.1410566 0.386554,0.519273 0.687394,1.0889613 0.892453,1.6922593 -0.215143,1.868728 -0.710941,2.799689 -0.922706,3.1240421 z M 15.32437,5.8783739 C 15.158,5.5573996 14.963025,5.2481883 14.742857,4.9541016 14.394958,4.488604 13.981513,4.0600776 13.512605,3.6786053 13.426891,3.2534398 13.191597,2.5846025 12.559664,1.8821552 c 0.01177,0.0084 0.02353,0.018486 0.03531,0.026888 0.03866,0.028568 0.07563,0.058817 0.114285,0.087386 0.435295,0.3428211 0.831933,0.7310156 1.183194,1.1578616 0.652101,0.7948744 1.144538,1.7174664 1.433613,2.7072783 -0.0017,0.00672 -0.0017,0.011763 -0.0017,0.016803 z"
   id="path2"
   style="stroke-width:0.999997" />















</svg>
